<svg height="24" viewBox="0 0 24 24" width="24" xmlns="http://www.w3.org/2000/svg"><path class='content' d="m16.8670757 22c1.7791411 0 2.9550102-.4805665 3.997955-1.6461957.0817996-.0817986.1533742-.1738219.2351738-.2556205.6134969-.6850628.8997955-1.3599008.8997955-2.0040644 0-.7361869-.4294479-1.4212497-1.3394683-2.0551884l-2.9754601-2.0654133c-.9202454-.6339387-1.9938651-.7055125-2.8527608.1431475l-.787321.787311c-.2351738.2351708-.4396728.2453956-.6748467.1022481-.5419222-.3476438-1.6564417-1.3190015-2.4130879-2.0756381-.797546-.787311-1.57464211-1.6666453-1.97341512-2.3108089-.14314928-.2351708-.12269938-.4294423.11247444-.66461316l.77709611-.787311c.85889567-.85888473.78732107-1.94271546.15337427-2.85272428l-2.07566465-2.9754221c-.62372189-.91000882-1.30879346-1.32922637-2.04498978-1.33945119-.64417178-.01022482-1.3190184.28629491-2.00408998.89978401-.09202454.08179854-.17382413.15337227-.26584867.224946-1.15541922 1.04293145-1.63599182 2.21878555-1.63599182 3.9876791 0 2.92429802 1.799591 6.48253472 5.10224949 9.78515102 3.28220861 3.2821667 6.85071571 5.1021843 9.76482621 5.1021843zm.0102249-1.574622c-2.6073619.0511241-5.9509202-1.9529403-8.59918199-4.5909434-2.66871166-2.6584527-4.76482618-6.11444128-4.71370143-8.72176992.0204499-1.12473.40899795-2.09608773 1.21676891-2.79137537.0613497-.06134891.12269939-.112473.19427403-.16359709.29652352-.26584528.63394683-.40899273.9202454-.40899273.30674847 0 .57259714.112473.76687117.41921754l1.98364008 2.9754221c.21472393.31696937.23517382.67483801-.08179959.99180737l-.8997955.899784c-.71574642.70551246-.65439673 1.5643972-.14314929 2.24946.58282209.787311 1.59509203 1.9324907 2.37218814 2.7095768.78732107.787311 2.02453987 1.8915914 2.81186097 2.4846309.6850715.5112409 1.5541922.562365 2.2597137-.1431475l.8997955-.899784c.3169734-.3169694.6646217-.2965197.9815951-.0920234l2.9754601 1.9836148c.3067485.2044963.4294478.4601168.4294478.7668613 0 .2965198-.1431492.623714-.4192229.9304585-.0511247.0715737-.0920245.1226978-.1533742.1942715-.7055215.7975359-1.6768916 1.186079-2.801636 1.2065286z" fill="#909599"/></svg>